#!OML:ASF H:\MichaelJackson\Top Level 1\Subject 1\Session 1\male.ASF
:FULLY-SPECIFIED
:DEGREES
429
root 4.76538 16.8359 -14.4318 8.06399 8.79773 -10.7235
lowerback -0.897013 3.17601 3.6507
upperback 4.71058 3.81073 7.74191
thorax 5.12559 1.8807 6.27656
lowerneck -11.2369 -6.90799 -2.12808
upperneck 46.5166 -9.98008 -0.11263
head 20.3356 -4.06826 -1.53152
rclavicle 5.96354e-015 5.08889e-014
rhumerus -18.4151 35.8722 -87.3664
rradius 132.679
rwrist -29.1324
rhand -47.0021 -62.8138
rfingers 7.12502
rthumb -19.7093 -268.165
lclavicle 5.96354e-015 5.08889e-014
lhumerus -74.304 -6.44988 94.4791
lradius 54.5763
lwrist 13.491
lhand -8.8124 13.278
lfingers 7.12502
lthumb 17.127 42.5431
rfemur -18.0666 -6.88951 34.7874
rtibia 29.8133
rfoot -17.6696 5.73144
rtoes 28.06
lfemur -40.2404 -9.7054 -7.88505
ltibia 64.0753
lfoot -3.02274 1.57107
ltoes 20.9131
430
root 4.75932 16.8334 -14.4125 8.25192 9.12641 -10.7826
lowerback -0.972525 2.99869 3.7354
upperback 4.65266 3.5686 7.71079
thorax 5.13383 1.76396 6.18571
lowerneck -11.2671 -6.89788 -2.06898
upperneck 46.5788 -10.0432 -0.012346
head 20.3975 -4.06862 -1.50972
rclavicle -1.74931e-014 5.56597e-014
rhumerus -18.5048 35.8905 -87.6058
rradius 132.675
rwrist -28.8972
rhand -47.0672 -62.6277
rfingers 7.12502
rthumb -19.7719 -268.358
lclavicle -1.74931e-014 5.56597e-014
lhumerus -73.9569 -6.42982 94.8092
lradius 54.7201
lwrist 13.1075
lhand -8.28359 13.2285
lfingers 7.12502
lthumb 17.636 42.4487
rfemur -18.2521 -7.13898 34.9183
rtibia 29.7883
rfoot -17.7321 5.8273
rtoes 28.4275
lfemur -40.8531 -10.0385 -7.79346
ltibia 64.5753
lfoot -2.35546 1.97325
ltoes 20.9392
431
root 4.75143 16.834 -14.3959 8.38292 9.37128 -10.7748
lowerback -0.964972 2.87137 3.72665
upperback 4.64137 3.40136 7.65986
thorax 5.13249 1.68123 6.12641
lowerneck -11.3124 -6.91494 -2.0196
upperneck 46.5609 -10.155 0.121012
head 20.4116 -4.08776 -1.47679
rclavicle 4.92986e-014 -1.59028e-014
rhumerus -18.5969 35.842 -87.814
rradius 132.724
rwrist -28.4548
rhand -47.1408 -62.2846
rfingers 7.12502
rthumb -19.8426 -268.708
lclavicle 4.92986e-014 -1.59028e-014
lhumerus -73.6511 -6.5245 95.1395
lradius 55.0227
lwrist 12.9352
lhand -7.6712 12.9804
lfingers 7.12502
lthumb 18.2252 42.1466
rfemur -18.3548 -7.33635 34.9554
rtibia 29.7483
rfoot -17.7793 5.95479
rtoes 28.7613
lfemur -41.408 -10.2905 -7.7836
ltibia 65.0654
lfoot -1.53812 2.29961
ltoes 21.2846
432
root 4.7419 16.8366 -14.3811 8.43966 9.5062 -10.7424
lowerback -0.870163 2.80463 3.65592
upperback 4.67746 3.3216 7.60648
thorax 5.12084 1.63969 6.10059
lowerneck -11.3714 -6.95653 -1.9789
upperneck 46.4692 -10.3028 0.26939
head 20.3797 -4.12272 -1.43977
rclavicle -1.74931e-014 6.36111e-015
rhumerus -18.6827 35.7433 -87.9743
rradius 132.829
rwrist -27.9107
rhand -47.2139 -61.8626
rfingers 7.12502
rthumb -19.9129 -269.138
lclavicle -1.74931e-014 6.36111e-015
lhumerus -73.3864 -6.72573 95.4762
lradius 55.4467
lwrist 12.992
lhand -7.03404 12.5632
lfingers 7.12502
lthumb 18.8381 41.6711
rfemur -18.3437 -7.47608 34.9443
rtibia 29.6785
rfoot -17.8143 6.10601
rtoes 29.0189
lfemur -41.8533 -10.4004 -7.82592
ltibia 65.5258
lfoot -0.672915 2.55105
ltoes 21.9917
433
root 4.7312 16.8404 -14.3669 8.42745 9.5181 -10.7212
lowerback -0.714813 2.79848 3.55699
upperback 4.7519 3.32573 7.56234
thorax 5.10658 1.63857 6.103
lowerneck -11.4291 -7.01313 -1.944
upperneck 46.3177 -10.4632 0.412041
head 20.3048 -4.16658 -1.40478
rclavicle -1.23246e-014 -3.18055e-014
rhumerus -18.7522 35.6151 -88.0843
rradius 132.979
rwrist -27.3903
rhand -47.291 -61.4276
rfingers 7.12502
rthumb -19.987 -269.58
lclavicle -1.23246e-014 -3.18055e-014
lhumerus -73.1731 -7.00706 95.8143
lradius 55.9633
lwrist 13.2645
lhand -6.42486 12.0249
lfingers 7.12502
lthumb 19.4239 41.0747
rfemur -18.2192 -7.55556 34.9287
rtibia 29.5729
rfoot -17.8459 6.26741
rtoes 29.1436
lfemur -42.1525 -10.3335 -7.88832
ltibia 65.9326
lfoot 0.117146 2.73126
ltoes 22.9238
434
root 4.71996 16.844 -14.3523 8.37606 9.41412 -10.7344
lowerback -0.537824 2.84343 3.4608
upperback 4.84546 3.39771 7.534
thorax 5.09427 1.67096 6.12361
lowerneck -11.4817 -7.07257 -1.91513
upperneck 46.1371 -10.6097 0.528741
head 20.2055 -4.21075 -1.37767
rclavicle -1.78906e-014 -3.10104e-014
rhumerus -18.799 35.4936 -88.1525
rradius 133.155
rwrist -26.9848
rhand -47.3694 -61.0607
rfingers 7.12502
rthumb -20.0624 -269.955
lclavicle -1.78906e-014 -3.10104e-014
lhumerus -73.0134 -7.32921 96.1388
lradius 56.5396
lwrist 13.7193
lhand -5.85224 11.4225
lfingers 7.12502
lthumb 19.9744 40.4159
rfemur -18.0173 -7.57602 34.9439
rtibia 29.4338
rfoot -17.8757 6.42686
rtoes 29.1034
lfemur -42.3078 -10.0847 -7.94044
ltibia 66.2626
lfoot 0.71748 2.84661
ltoes 23.8727
435
root 4.70918 16.8468 -14.336 8.32042 9.20162 -10.7848
lowerback -0.383351 2.92677 3.38586
upperback 4.93915 3.51775 7.51918
thorax 5.09171 1.72775 6.15017
lowerneck -11.5218 -7.12118 -1.89495
upperneck 45.9589 -10.7153 0.603839
head 20.1001 -4.2463 -1.36108
rclavicle -3.06128e-014 3.18055e-015
rhumerus -18.8126 35.4031 -88.1884
rradius 133.32
rwrist -26.7308
rhand -47.4234 -60.8301
rfingers 7.12502
rthumb -20.1143 -449.809
lclavicle -3.06128e-014 3.18055e-015
lhumerus -72.9099 -7.65034 96.433
lradius 57.1475
lwrist 14.3003
lhand -5.33538 10.8321
lfingers 7.12502
lthumb 20.4711 39.7729
rfemur -17.7823 -7.53688 34.9989
rtibia 29.2785
rfoot -17.9038 6.57826
rtoes 28.9541
lfemur -42.3266 -9.679 -7.9674
ltibia 66.4944
lfoot 1.04077 2.90967
ltoes 24.6721
436
root 4.69992 16.8486 -14.3172 8.30003 8.89665 -10.862
lowerback -0.292482 3.0315 3.34441
upperback 5.01478 3.66109 7.50974
thorax 5.10629 1.7972 6.16765
lowerneck -11.5531 -7.14458 -1.88388
upperneck 45.8172 -10.7547 0.624009
head 20.0113 -4.26375 -1.35778
rclavicle 2.90226e-014 7.71285e-014
rhumerus -18.784 35.3764 -88.206
rradius 133.44
rwrist -26.6295
rhand -47.4592 -60.7315
rfingers 7.12502
rthumb -20.1487 -449.707
lclavicle 2.90226e-014 7.71285e-014
lhumerus -72.8577 -7.92782 96.675
lradius 57.7628
lwrist 14.9372
lhand -4.87629 10.3004
lfingers 7.12502
lthumb 20.9123 39.1931
rfemur -17.5682 -7.44715 35.0879
rtibia 29.1296
rfoot -17.9336 6.72131
rtoes 28.7447
lfemur -42.2326 -9.15202 -7.96825
ltibia 66.6145
lfoot 1.06954 2.92774
ltoes 25.1937
